<svg width="102" height="86" viewBox="0 0 102 86" fill="none" xmlns="http://www.w3.org/2000/svg">
<g opacity="0.46635">
<path opacity="0.34615" fill-rule="evenodd" clip-rule="evenodd" d="M59.188 0.0036208C39.46 13.6926 19.723 27.3686 0 41.0656C10.26 55.8576 20.511 70.6556 30.781 85.4406C50.727 71.5946 70.699 57.7836 90.625 43.9096C91.5981 36.2509 94.2823 28.1786 94.2188 20.7536C89.8682 15.1818 86.4682 8.13161 81.5308 3.47262C74.1617 2.56612 66.3108 -0.114881 59.1868 0.00381917L59.188 0.0036208ZM78.5 16.3476C82.9564 15.9906 82.2375 23.6695 77.8125 22.2226C74.6101 21.3934 75.1953 16.4792 78.5 16.3476Z" fill="black"/>
<path opacity="0.34615" fill-rule="evenodd" clip-rule="evenodd" d="M59.5281 1.25364C40.2481 14.6316 20.9581 27.9936 1.68408 41.3786C11.4825 55.5066 21.2831 69.6336 31.0901 83.7536C50.5591 70.2406 70.0511 56.7606 89.4961 43.2226C90.5226 35.6836 92.9429 27.9786 92.9649 21.0976C88.7172 15.5468 85.373 8.93563 80.9029 4.59763C73.6085 3.63507 66.1201 1.22264 59.5281 1.25364ZM78.4031 15.1286H78.4343C79.8771 15.0238 81.158 15.6551 81.8718 16.5974C82.591 17.5469 82.7996 18.705 82.6843 19.8162C82.569 20.9274 82.1112 22.0525 81.1843 22.8162C80.2713 23.5685 78.8917 23.8131 77.4968 23.3787V23.4099L77.4343 23.3787C75.3026 22.7861 74.2831 20.6906 74.4968 18.8787C74.7119 17.0552 76.1721 15.2343 78.4031 15.1286Z" fill="black"/>
<path opacity="0.34615" fill-rule="evenodd" clip-rule="evenodd" d="M59.7781 2.06361C40.7991 15.2326 21.8121 28.3886 2.84009 41.5636C12.3237 55.2386 21.7861 68.9286 31.2781 82.5946C50.4411 69.2946 69.6391 56.0436 88.7781 42.7196C89.8349 35.2924 92.0801 27.8616 92.1531 21.3446C87.9618 15.8105 84.6596 9.48262 80.4651 5.34462C73.262 4.35291 66.0111 2.09672 59.7771 2.06342L59.7781 2.06361ZM78.3401 14.3136H78.4026C80.0707 14.2019 81.6624 14.9526 82.5276 16.0948C83.4039 17.2517 83.6617 18.6151 83.5276 19.9073C83.3935 21.1995 82.8525 22.5014 81.7151 23.4385C80.6067 24.3518 78.9033 24.6343 77.3089 24.1573V24.1885L77.2464 24.1573C77.2256 24.1503 77.2047 24.1643 77.1839 24.1573V24.1261C74.7 23.4012 73.4334 20.906 73.6839 18.7823C73.9371 16.6359 75.7168 14.4525 78.3401 14.3136Z" fill="black"/>
</g>
<path fill-rule="evenodd" clip-rule="evenodd" d="M81.503 23.4668C79.234 25.0406 76.1187 24.477 74.5449 22.208C72.9711 19.939 73.5347 16.8237 75.8037 15.2499C78.0727 13.6761 81.188 14.2397 82.7618 16.5087C84.3356 18.7777 83.772 21.893 81.503 23.4668ZM60.297 1.66582L81.171 5.44223L92.57 21.8762L88.7936 42.7502L31.2746 82.6452L2.77759 41.5602L60.2956 1.66522L60.297 1.66582Z" fill="url(#paint0_linear_106_3)"/>
<path d="M98.5931 0.906814C97.4876 1.07934 96.1512 1.61299 94.5931 2.40681C91.4769 3.99451 87.5483 6.56731 83.7491 9.12561L84.3117 9.96934C88.1041 7.41544 92.0026 4.85573 95.0307 3.31303C96.5446 2.54172 97.853 2.01543 98.7495 1.87553C99.1977 1.80553 99.519 1.82904 99.7182 1.90674C99.9175 1.98444 100.017 2.07237 100.093 2.313C100.177 2.57754 100.101 3.15095 99.7182 3.8755C99.3352 4.60005 98.7005 5.46289 97.8744 6.40669C96.2224 8.29439 93.8372 10.4623 91.2807 12.4379C88.7242 14.4135 85.9801 16.1931 83.6557 17.3441C82.4935 17.9196 81.4301 18.3291 80.5619 18.5316C79.9542 18.6733 79.6198 18.589 79.2494 18.5316C79.8098 17.3019 80.5327 16.0567 80.9682 14.9066L80.0307 14.5629C79.5868 15.7355 78.609 17.232 77.9995 18.8129L77.8433 19.2191L78.2495 19.4379C78.9527 19.7895 79.7964 19.7612 80.7807 19.5316C81.765 19.3019 82.8862 18.848 84.0932 18.2504C86.5072 17.055 89.2769 15.2265 91.8745 13.2192C94.4721 11.2119 96.9081 9.02427 98.6245 7.06287C99.4827 6.0822 100.152 5.17866 100.593 4.34416C101.035 3.50966 101.287 2.73936 101.062 2.03166C100.909 1.54973 100.539 1.14323 100.093 0.969161C99.6479 0.795091 99.1459 0.820554 98.5931 0.906814Z" fill="url(#paint1_linear_106_3)"/>
<path d="M29.3102 42.9826L38.9237 57.5511L36.2632 59.3067L23.8744 54.3198L23.7677 54.3902L29.8183 63.5595L26.7382 65.5921L17.1247 51.0235L19.8278 49.2398L32.1622 54.2525L32.2902 54.168L26.2443 45.0057L29.3102 42.9826ZM41.4685 55.8718L31.8551 41.3033L41.6717 34.8254L43.3475 37.365L36.611 41.8103L38.9017 45.2817L45.1332 41.1696L46.809 43.7092L40.5775 47.8212L42.8729 51.2997L49.6379 46.8356L51.3137 49.3752L41.4685 55.8718ZM57.0134 45.614L43.2314 33.7962L46.5961 31.5759L55.6873 40.1072L55.8082 40.0274L51.789 28.1493L54.67 26.2482L64.0171 34.6412L64.1451 34.5567L59.8629 22.8215L63.2276 20.6012L68.6725 37.9205L65.6706 39.9014L56.6109 32.207L56.4971 32.2821L60.0153 43.6331L57.0134 45.614ZM68.44 17.1616L74.8939 27.5455L72.2903 29.2635L65.2745 19.2505L68.44 17.1616ZM76.5963 32.9572C76.1268 33.267 75.6142 33.367 75.0584 33.2572C74.4995 33.1427 74.0676 32.8491 73.7625 32.3765C73.4511 31.9149 73.3542 31.407 73.4718 30.8528C73.5895 30.2987 73.8831 29.8667 74.3526 29.5569C74.8031 29.2596 75.3086 29.1643 75.8691 29.2709C76.4296 29.3776 76.8656 29.6617 77.177 30.1233C77.3788 30.4395 77.4851 30.7811 77.496 31.1484C77.5085 31.5077 77.4383 31.8501 77.2855 32.1756C77.1296 32.4964 76.8998 32.7569 76.5963 32.9572Z" fill="#FF0000"/>
<defs>
<linearGradient id="paint0_linear_106_3" x1="22.772" y1="70.9568" x2="130.963" y2="-6.99319" gradientUnits="userSpaceOnUse">
<stop stop-color="#FFD42A"/>
<stop offset="1" stop-color="#FFF6D5"/>
</linearGradient>
<linearGradient id="paint1_linear_106_3" x1="86.7631" y1="0.836801" x2="101.143" y2="21.6768" gradientUnits="userSpaceOnUse">
<stop stop-color="#FFE6D5"/>
<stop offset="1" stop-color="#2B1100"/>
</linearGradient>
</defs>
</svg>
